HIERARCHY
ROOT hip
{
  OFFSET 0 0 0
  CHANNELS 6 Xposition Yposition Zposition Zrotation Yrotation Xrotation
  JOINT abdomen
  {
    OFFSET 0 20.6881 -0.73152
    CHANNELS 3 Zrotation Xrotation Yrotation
    JOINT chest
    {
      OFFSET 0 11.7043 -0.48768
      CHANNELS 3 Zrotation Xrotation Yrotation
      JOINT neck
      {
        OFFSET 0 22.1894 -2.19456
        CHANNELS 3 Zrotation Xrotation Yrotation
        JOINT head
        {
          OFFSET -0.24384 7.07133 1.2192
          CHANNELS 3 Zrotation Xrotation Yrotation
          JOINT leftEye
          {
            OFFSET 4.14528 8.04674 8.04672
            CHANNELS 3 Zrotation Xrotation Yrotation
            End Site
            {
              OFFSET 1 0 0
            }
          }
          JOINT rightEye
          {
            OFFSET -3.6576 8.04674 8.04672
            CHANNELS 3 Zrotation Xrotation Yrotation
            End Site
            {
              OFFSET 1 0 0
            }
          }
        }
      }
      JOINT rCollar
      {
        OFFSET -2.68224 19.2634 -4.8768
        CHANNELS 3 Zrotation Xrotation Yrotation
        JOINT rShldr
        {
          OFFSET -8.77824 -1.95073 1.46304
          CHANNELS 3 Zrotation Xrotation Yrotation
          JOINT rForeArm
          {
            OFFSET -28.1742 -1.7115 0.48768
            CHANNELS 3 Zrotation Xrotation Yrotation
            JOINT rHand
            {
              OFFSET -22.5879 0.773209 7.07136
              CHANNELS 3 Zrotation Xrotation Yrotation
              JOINT rThumb1
              {
                OFFSET -1.2192 -0.487915 3.41376
                CHANNELS 3 Zrotation Xrotation Yrotation
                JOINT rThumb2
                {
                  OFFSET -3.37035 -0.52449 3.41376
                  CHANNELS 3 Zrotation Xrotation Yrotation
                  End Site
                  {
                    OFFSET -1.78271 -1.18214 1.43049
                  }
                }
              }
              JOINT rIndex1
              {
                OFFSET -7.75947 0.938293 5.60832
                CHANNELS 3 Zrotation Xrotation Yrotation
                JOINT rIndex2
                {
                  OFFSET -2.54057 -0.884171 1.56538
                  CHANNELS 3 Zrotation Xrotation Yrotation
                  End Site
                  {
                    OFFSET -1.62519 -0.234802 1.16502
                  }
                }
              }
              JOINT rMid1
              {
                OFFSET -8.24714 1.18213 3.41376
                CHANNELS 3 Zrotation Xrotation Yrotation
                JOINT rMid2
                {
                  OFFSET -3.10165 -0.590103 1.0647
                  CHANNELS 3 Zrotation Xrotation Yrotation
                  End Site
                  {
                    OFFSET -2.48547 -0.328903 0.83742
                  }
                }
              }
              JOINT rRing1
              {
                OFFSET -8.82822 0.546677 1.51678
                CHANNELS 3 Zrotation Xrotation Yrotation
                JOINT rRing2
                {
                  OFFSET -2.60934 -0.819778 -0.0198488
                  CHANNELS 3 Zrotation Xrotation Yrotation
                  End Site
                  {
                    OFFSET -2.33842 -0.294052 0.168128
                  }
                }
              }
              JOINT rPinky1
              {
                OFFSET -8.27202 -0.0477905 -0.4584
                CHANNELS 3 Zrotation Xrotation Yrotation
                JOINT rPinky2
                {
                  OFFSET -1.82734 -0.647385 -0.700984
                  CHANNELS 3 Zrotation Xrotation Yrotation
                  End Site
                  {
                    OFFSET -1.69225 -0.51767 -0.607171
                  }
                }
              }
            }
          }
        }
      }
      JOINT lCollar
      {
        OFFSET 2.68224 19.2634 -4.8768
        CHANNELS 3 Zrotation Xrotation Yrotation
        JOINT lShldr
        {
          OFFSET 8.77824 -1.95073 1.46304
          CHANNELS 3 Zrotation Xrotation Yrotation
          JOINT lForeArm
          {
            OFFSET 28.1742 -1.7115 0.48768
            CHANNELS 3 Zrotation Xrotation Yrotation
            JOINT lHand
            {
              OFFSET 22.5879 0.773209 7.07136
              CHANNELS 3 Zrotation Xrotation Yrotation
              JOINT lThumb1
              {
                OFFSET 1.2192 -0.487915 3.41376
                CHANNELS 3 Zrotation Xrotation Yrotation
                JOINT lThumb2
                {
                  OFFSET 3.37035 -0.52449 3.41376
                  CHANNELS 3 Zrotation Xrotation Yrotation
                  End Site
                  {
                    OFFSET 1.78271 -1.18214 1.43049
                  }
                }
              }
              JOINT lIndex1
              {
                OFFSET 7.75947 0.938293 5.60832
                CHANNELS 3 Zrotation Xrotation Yrotation
                JOINT lIndex2
                {
                  OFFSET 2.54057 -0.884171 1.56538
                  CHANNELS 3 Zrotation Xrotation Yrotation
                  End Site
                  {
                    OFFSET 1.62519 -0.234802 1.16502
                  }
                }
              }
              JOINT lMid1
              {
                OFFSET 8.24714 1.18213 3.41376
                CHANNELS 3 Zrotation Xrotation Yrotation
                JOINT lMid2
                {
                  OFFSET 3.10165 -0.590103 1.0647
                  CHANNELS 3 Zrotation Xrotation Yrotation
                  End Site
                  {
                    OFFSET 2.48547 -0.328903 0.83742
                  }
                }
              }
              JOINT lRing1
              {
                OFFSET 8.82822 0.546677 1.51678
                CHANNELS 3 Zrotation Xrotation Yrotation
                JOINT lRing2
                {
                  OFFSET 2.60934 -0.819778 -0.0198488
                  CHANNELS 3 Zrotation Xrotation Yrotation
                  End Site
                  {
                    OFFSET 2.33842 -0.294052 0.168128
                  }
                }
              }
              JOINT lPinky1
              {
                OFFSET 8.27202 -0.0477905 -0.4584
                CHANNELS 3 Zrotation Xrotation Yrotation
                JOINT lPinky2
                {
                  OFFSET 1.82734 -0.647385 -0.700984
                  CHANNELS 3 Zrotation Xrotation Yrotation
                  End Site
                  {
                    OFFSET 1.69225 -0.51767 -0.607171
                  }
                }
              }
            }
          }
        }
      }
    }
  }
  JOINT rButtock
  {
    OFFSET -8.77824 4.35084 1.2192
    CHANNELS 3 Zrotation Xrotation Yrotation
    JOINT rThigh
    {
      OFFSET 0 -1.70687 -2.19456
      CHANNELS 3 Zrotation Xrotation Yrotation
      JOINT rShin
      {
        OFFSET 0 -36.8199 0.73152
        CHANNELS 3 Zrotation Xrotation Yrotation
        JOINT rFoot
        {
          OFFSET 0.73152 -45.1104 -5.12064
          CHANNELS 3 Zrotation Xrotation Yrotation
          End Site
          {
            OFFSET -1.1221 -3.69964 12.103
          }
        }
      }
    }
  }
  JOINT lButtock
  {
    OFFSET 8.77824 4.35084 1.2192
    CHANNELS 3 Zrotation Xrotation Yrotation
    JOINT lThigh
    {
      OFFSET 0 -1.70687 -2.19456
      CHANNELS 3 Zrotation Xrotation Yrotation
      JOINT lShin
      {
        OFFSET 0 -36.8199 0.73152
        CHANNELS 3 Zrotation Xrotation Yrotation
        JOINT lFoot
        {
          OFFSET -0.73152 -45.1104 -5.12064
          CHANNELS 3 Zrotation Xrotation Yrotation
          End Site
          {
            OFFSET 1.1221 -3.69964 12.103
          }
        }
      }
    }
  }
}
MOTION
Frames:	6
Frame Time:	0.00833333
-9.1083 81.9815 36.3243 -9.087 -2.1297 -7.6472 -2.09388 17.6353 3.12132 -1.27802 -5.45707 0.31526 -13.3963 17.7274 -14.4753 21.3907 -6.78111 -27.003 -0.0 0.0 0.0 -0.0 0.0 0.0 -9.26322e-14 2.6321e-13 -1.11428e-14 76.8986 11.149 -0.943024 -19.8572 -53.4581 114.56 -2.70775 -41.4918 -7.14059 6.06684e-10 9.60771e-10 -2.89747e-10 1.06466e-09 1.72461e-09 -4.85827e-10 6.06689e-10 9.60773e-10 -2.89764e-10 7.73091 5.47488 0.417314 6.06681e-10 9.60776e-10 -2.89752e-10 2.90554 0.965183 0.102902 6.06693e-10 9.60775e-10 -2.8975e-10 10.2786 0.731801 0.0259123 6.06677e-10 9.60776e-10 -2.89746e-10 2.22167 -0.733487 -0.20892 -9.27537e-14 2.63197e-13 -1.15943e-14 -101.354 50.716 22.4247 28.0621 -40.0778 -84.0579 0.589326 -21.2746 3.13696 -1.36244e-09 -3.29227e-08 -4.57371e-09 -2.28149e-09 -5.66945e-08 -7.9255e-09 -1.36244e-09 -3.29227e-08 -4.57371e-09 -7.73091 5.47488 -0.417314 -1.36244e-09 -3.29227e-08 -4.5737e-09 -2.90554 0.965183 -0.102902 -1.36245e-09 -3.29227e-08 -4.57371e-09 -10.2786 0.731801 -0.0259123 -1.36244e-09 -3.29227e-08 -4.57372e-09 -2.22167 -0.733487 0.20892 -2.03217e-16 0.0 -3.88251e-19 1.68046 7.23439 -4.53704 -0.0308804 11.2121 -0.437411 -0.966814 -14.8795 -12.8346 2.03217e-16 0.0 3.88251e-19 11.6824 -1.48902 0.753019 -0.270064 24.4974 -2.3061 -2.53575 -14.1172 17.886
-9.05896 82.161 36.3782 -8.9958 -2.5264 -7.5417 -2.07365 17.4728 2.87593 -1.08447 -5.48263 0.271223 -13.4133 17.4849 -14.4627 21.2448 -7.80988 -26.7856 -0.0 0.0 0.0 -0.0 0.0 0.0 8.13922e-14 1.39349e-13 4.38569e-15 77.1099 11.3613 -1.08718 -19.9264 -53.4055 114.393 -2.72789 -41.612 -7.17097 3.99775e-10 -2.99441e-10 -1.04402e-09 7.30128e-10 -4.22067e-10 -1.79442e-09 3.99783e-10 -2.99439e-10 -1.04404e-09 7.73091 5.47488 0.417314 3.99773e-10 -2.99438e-10 -1.04402e-09 2.90554 0.965183 0.102902 3.99785e-10 -2.99439e-10 -1.04402e-09 10.2786 0.731801 0.0259123 3.9977e-10 -2.99439e-10 -1.04402e-09 2.22167 -0.733487 -0.20892 8.13309e-14 1.39347e-13 4.0285e-15 -101.625 50.8145 23.0372 28.0857 -39.9437 -83.8154 0.593344 -21.3425 3.14797 -5.87498e-10 -1.92391e-08 -2.72857e-09 -9.69351e-10 -3.31179e-08 -4.728e-09 -5.87499e-10 -1.92391e-08 -2.72857e-09 -7.73091 5.47488 -0.417314 -5.87498e-10 -1.92391e-08 -2.72857e-09 -2.90554 0.965183 -0.102902 -5.87502e-10 -1.92391e-08 -2.72857e-09 -10.2786 0.731801 -0.0259123 -5.87495e-10 -1.92391e-08 -2.72858e-09 -2.22167 -0.733487 0.20892 -2.03217e-16 0.0 -3.88251e-19 1.78642 7.8838 -4.36863 -0.0244865 10.0494 -0.409331 -1.06777 -14.4988 -12.7087 2.03217e-16 0.0 3.88251e-19 11.5679 -0.982556 0.258941 -0.262248 23.7188 -2.21436 -2.5156 -13.9888 18.4157
-9.05011 82.3943 36.5402 -8.9771 -2.3488 -7.5491 -2.00812 17.2523 2.62293 -0.88633 -5.50799 0.231175 -13.4221 17.1902 -14.4283 21.082 -8.91407 -26.5106 -0.0 0.0 0.0 -0.0 0.0 0.0 2.46651e-13 1.73782e-14 1.91253e-14 77.3379 11.5112 -1.20575 -20.0089 -53.3421 114.193 -2.74907 -41.7375 -7.20282 1.91168e-10 -1.48331e-09 -1.72362e-09 3.90064e-10 -2.44177e-09 -2.974e-09 1.91179e-10 -1.48331e-09 -1.72364e-09 7.73091 5.47488 0.417314 1.91167e-10 -1.48331e-09 -1.72362e-09 2.90554 0.965183 0.102902 1.9118e-10 -1.48331e-09 -1.72362e-09 10.2786 0.731801 0.0259123 1.91167e-10 -1.48332e-09 -1.72362e-09 2.22167 -0.733487 -0.20892 2.46656e-13 1.73846e-14 1.88671e-14 -101.878 50.9274 23.6547 28.1089 -39.8006 -83.5617 0.598742 -21.4335 3.16276 1.81211e-10 -5.44977e-09 -8.56162e-10 3.31421e-10 -9.35889e-09 -1.48315e-09 1.81211e-10 -5.44977e-09 -8.5616e-10 -7.73091 5.47488 -0.417314 1.81211e-10 -5.44976e-09 -8.56161e-10 -2.90554 0.965183 -0.102902 1.81206e-10 -5.44976e-09 -8.56163e-10 -10.2786 0.731801 -0.0259123 1.81214e-10 -5.44976e-09 -8.56174e-10 -2.22167 -0.733487 0.20892 -2.03217e-16 0.0 -3.88251e-19 1.92177 8.69676 -4.1687 -0.0168846 8.56807 -0.376965 -1.19082 -14.0195 -12.5663 2.03217e-16 0.0 3.88251e-19 11.4512 -0.401488 -0.331217 -0.250205 22.7702 -2.09961 -2.4814 -13.817 18.9937
-9.00642 82.6463 36.656 -8.8998 -2.5092 -7.468 -1.85835 17.0525 2.3978 -0.741477 -5.53027 0.20015 -13.377 16.8816 -14.3599 20.9183 -10.0917 -26.1592 -0.0 0.0 0.0 -0.0 0.0 0.0 3.3059e-13 -6.0435e-14 2.66371e-14 77.4913 11.5693 -1.22329 -20.0797 -53.2871 114.021 -2.75778 -41.7887 -7.21589 6.1318e-11 -2.07279e-09 -2.00856e-09 1.73764e-10 -3.45282e-09 -3.46958e-09 6.13302e-11 -2.07279e-09 -2.00858e-09 7.73091 5.47488 0.417314 6.13175e-11 -2.07279e-09 -2.00856e-09 2.90554 0.965183 0.102902 6.13295e-11 -2.07279e-09 -2.00856e-09 10.2786 0.731801 0.0259123 6.13181e-11 -2.07279e-09 -2.00856e-09 2.22167 -0.733487 -0.20892 3.30639e-13 -6.04255e-14 2.64384e-14 -102.055 51.0418 24.1649 28.124 -39.7012 -83.3881 0.605369 -21.5453 3.18092 6.32221e-10 3.24371e-09 3.07528e-10 1.09337e-09 5.61794e-09 5.33508e-10 6.3222e-10 3.24371e-09 3.07531e-10 -7.73091 5.47488 -0.417314 6.32221e-10 3.24371e-09 3.07528e-10 -2.90554 0.965183 -0.102902 6.32216e-10 3.24371e-09 3.07526e-10 -10.2786 0.731801 -0.0259123 6.32225e-10 3.24371e-09 3.07515e-10 -2.22167 -0.733487 0.20892 -2.03217e-16 0.0 -3.88251e-19 2.07911 9.54556 -3.99051 -0.0110118 6.97868 -0.345807 -1.28561 -13.4287 -12.3419 2.03217e-16 0.0 3.88251e-19 11.3829 0.139511 -0.885893 -0.238897 21.8872 -1.99375 -2.44042 -13.6792 19.5746
-8.95539 82.8844 36.7352 -8.8864 -2.8212 -7.344 -1.61166 16.8589 2.2204 -0.657601 -5.53555 0.185379 -13.2743 16.5805 -14.2626 20.7957 -11.448 -25.7186 -0.0 0.0 0.0 -0.0 0.0 0.0 2.98255e-13 -6.91158e-14 2.55978e-14 77.5848 11.4969 -1.12715 -20.1439 -53.237 113.864 -2.74622 -41.7208 -7.19856 8.51824e-11 -1.74049e-09 -1.73342e-09 2.05713e-10 -2.89565e-09 -2.99315e-09 8.51945e-11 -1.74048e-09 -1.73344e-09 7.73091 5.47488 0.417314 8.51813e-11 -1.74049e-09 -1.73342e-09 2.90554 0.965183 0.102902 8.5192e-11 -1.74048e-09 -1.73342e-09 10.2786 0.731801 0.0259123 8.51822e-11 -1.74049e-09 -1.73342e-09 2.22167 -0.733487 -0.20892 2.98318e-13 -6.91133e-14 2.5394e-14 -102.153 51.1562 24.5698 28.1296 -39.6634 -83.3223 0.61479 -21.7036 3.20666 5.98876e-10 4.12928e-09 3.63836e-10 1.0345e-09 7.13796e-09 6.31027e-10 5.98874e-10 4.12929e-09 3.63842e-10 -7.73091 5.47488 -0.417314 5.98876e-10 4.12929e-09 3.63838e-10 -2.90554 0.965183 -0.102902 5.9887e-10 4.12928e-09 3.63835e-10 -10.2786 0.731801 -0.0259123 5.98881e-10 4.12929e-09 3.63824e-10 -2.22167 -0.733487 0.20892 -2.03217e-16 0.0 -3.88251e-19 2.26003 10.4762 -3.81105 -0.00760606 5.18162 -0.31453 -1.35468 -12.6603 -12.0159 2.03217e-16 0.0 3.88251e-19 11.353 0.677771 -1.42687 -0.230694 21.0178 -1.88913 -2.37465 -13.5839 20.2073
-8.90861 83.1068 36.8005 -8.9418 -3.1201 -7.2069 -1.28955 16.6413 2.06833 -0.60639 -5.52977 0.182217 -13.1347 16.2624 -14.1406 20.7068 -12.9548 -25.2051 -0.0 0.0 0.0 -0.0 0.0 0.0 1.93543e-13 -3.57752e-14 1.93101e-14 77.6547 11.3201 -0.95515 -20.211 -53.1844 113.7 -2.7231 -41.584 -7.16382 2.02018e-10 -8.25779e-10 -1.09556e-09 3.86955e-10 -1.34866e-09 -1.88735e-09 2.02029e-10 -8.25775e-10 -1.09558e-09 7.73091 5.47488 0.417314 2.02016e-10 -8.25777e-10 -1.09556e-09 2.90554 0.965183 0.102902 2.02024e-10 -8.25776e-10 -1.09556e-09 10.2786 0.731801 0.0259123 2.02016e-10 -8.25775e-10 -1.09556e-09 2.22167 -0.733487 -0.20892 1.93606e-13 -3.57863e-14 1.90647e-14 -102.201 51.2785 24.9184 28.1304 -39.6585 -83.3134 0.626706 -21.9008 3.23885 2.75157e-10 4.22751e-10 -2.27238e-10 4.83223e-10 7.43605e-10 -3.9337e-10 2.75152e-10 4.22751e-10 -2.2723e-10 -7.73091 5.47488 -0.417314 2.75156e-10 4.22754e-10 -2.27234e-10 -2.90554 0.965183 -0.102902 2.7515e-10 4.22749e-10 -2.27239e-10 -10.2786 0.731801 -0.0259123 2.75163e-10 4.2275e-10 -2.27249e-10 -2.22167 -0.733487 0.20892 -2.03217e-16 0.0 -3.88251e-19 2.46429 11.5303 -3.61427 -0.00412116 3.11648 -0.281346 -1.42746 -11.7401 -11.6272 2.03217e-16 0.0 3.88251e-19 11.3451 1.25151 -2.00565 -0.221239 20.0744 -1.77468 -2.28674 -13.4933 20.8957
